Coordinates
version=1
nRows=11
nColumns=42
inDegrees=yes

Units are S.I. units (second, meters, Newtons, ...)
If the header above contains a line with 'inDegrees', this indicates whether rotational values are in degrees (yes) or radians (no).

endheader
time	pelvis_tilt	pelvis_list	pelvis_rotation	pelvis_tx	pelvis_ty	pelvis_tz	hip_flexion_r	hip_adduction_r	hip_rotation_r	knee_angle_r	knee_adduction_r	knee_angle_r_beta	ankle_angle_r	subtalar_angle_r	mtp_angle_r	hip_flexion_l	hip_adduction_l	hip_rotation_l	knee_angle_l	knee_adduction_l	knee_angle_l_beta	ankle_angle_l	subtalar_angle_l	mtp_angle_l	lumbar_extension	lumbar_bending	lumbar_rotation	arm_flex_r	arm_add_r	arm_rot_r	elbow_flex_r	pro_sup_r	wrist_flex_r	wrist_dev_r	arm_flex_l	arm_add_l	arm_rot_l	elbow_flex_l	pro_sup_l	wrist_flex_l	wrist_dev_l
      0.40000000	      9.90415029	     -2.72793876	     10.78652926	     -1.09055281	      0.87410392	      0.19197779	     -3.47136403	      8.86296019	     -0.42645515	     13.83310450	      2.38848400	      0.24143322	     17.06280375	    -13.29683799	     -9.79226833	     10.19455587	     -0.75898775	      2.88779433	     63.09156580	     -8.92052628	      1.10115555	     16.33867204	    -17.78212686	     -9.79226833	    -39.71341745	      7.87751898	     -2.30413620	     14.92836239	     -8.10980369	     -7.63370374	     33.08908415	     90.00000001	      0.00000000	      0.00000000	     17.92747556	     -8.40315341	     -9.10768252	     31.89675497	     90.00000001	      0.00000000	      0.00000000
      0.41000000	      9.79077295	     -2.60142111	     10.72919636	     -1.08218837	      0.87406670	      0.19281568	     -3.91211225	      8.98410210	     -0.59823897	     14.00878852	      2.13618516	      0.24449948	     17.56247215	    -13.10619215	     -9.75997085	     11.42940361	     -0.36098899	      2.74077567	     62.08909236	     -9.00252612	      1.08365909	     16.63066590	    -17.56307975	     -9.75997085	    -39.67257375	      7.63131789	     -2.19843111	     15.52389106	     -8.27185753	     -7.58285552	     33.53748963	     90.00000001	      0.00000000	      0.00000000	     17.43583397	     -8.29454512	     -9.21158256	     31.44400445	     90.00000001	      0.00000000	      0.00000000
      0.42000000	      9.74544666	     -2.36701677	     10.59244920	     -1.07374968	      0.87410904	      0.19352252	     -4.47560099	      8.97056243	     -0.52952712	     14.18172414	      1.92928632	      0.24751778	     18.31040408	    -12.98724641	     -9.72348986	     12.44153970	      0.20809026	      2.55278768	     60.79349323	     -9.07574500	      1.06104662	     16.85036924	    -17.51206988	     -9.72348986	    -39.70391794	      7.26663442	     -2.06697685	     16.14843547	     -8.46978117	     -7.41726466	     33.93148085	     90.00000001	      0.00000000	      0.00000000	     17.08630543	     -8.14611456	     -9.41910296	     30.68604137	     90.00000001	      0.00000000	      0.00000000
      0.43000000	      9.88743485	     -1.95095563	     10.30458272	     -1.06505851	      0.87465840	      0.19415975	     -5.39699218	      8.59633144	     -0.16534227	     14.18444217	      2.12702608	      0.24756522	     19.04909440	    -12.77151811	     -9.65474935	     12.95930083	      0.91111046	      2.29028558	     58.95769471	     -9.01304383	      1.02900589	     16.60113136	    -17.54422720	     -9.65474935	    -39.94440398	      6.69257289	     -1.90020809	     16.74748558	     -8.75856310	     -6.92404675	     34.37025613	     90.00000001	      0.00000000	      0.00000000	     16.93817654	     -7.91120233	    -10.19459737	     29.52052136	     90.00000001	      0.00000000	      0.00000000
      0.44000000	      9.82007200	     -1.84054080	     10.21320655	     -1.05658502	      0.87434417	      0.19475570	     -5.94911070	      8.75801973	     -0.06495581	     14.25125558	      1.82978559	      0.24873133	     19.60792005	    -12.66617456	     -9.60893643	     13.95238357	      1.27341325	      2.28429906	     57.35064333	     -8.83458175	      1.00095755	     16.67809647	    -17.41904879	     -9.60893643	    -39.90842283	      6.46154009	     -1.81069991	     17.37208785	     -8.96724349	     -6.64413099	     34.77840660	     90.00000001	      0.00000000	      0.00000000	     16.46572453	     -7.77972949	    -10.55675699	     28.99572004	     90.00000001	      0.00000000	      0.00000000
      0.45000000	      9.92459656	     -1.63086064	     10.08184123	     -1.04794201	      0.87443672	      0.19507260	     -6.91997638	      8.68450390	      0.46995992	     13.94777791	      1.88316520	      0.24343465	     19.90984896	    -12.79217558	     -9.48420685	     14.52297634	      1.72141557	      2.36375257	     55.29968800	     -8.51180044	      0.96516163	     16.43834700	    -17.40586526	     -9.48420685	    -40.05181773	      6.18013726	     -1.74085433	     17.96920410	     -9.28770346	     -5.90536454	     35.28070455	     90.00000001	      0.00000000	      0.00000000	     16.17289373	     -7.50337755	    -11.75153723	     28.16328144	     90.00000001	      0.00000000	      0.00000000
      0.46000000	      9.83107803	     -1.53862017	      9.96431817	     -1.03950675	      0.87386662	      0.19548822	     -7.43304316	      8.76536605	      0.68750582	     14.05084790	      1.77076701	      0.24523356	     20.49754611	    -12.78616671	     -9.42105664	     15.39831048	      2.00552522	      2.49094533	     53.27861093	     -8.06692011	      0.92988718	     16.43256787	    -17.25949668	     -9.42105664	    -39.97194407	      5.97666545	     -1.62338737	     18.59048921	     -9.52638286	     -5.60688984	     35.69363586	     90.00000001	      0.00000000	      0.00000000	     15.74951122	     -7.37319969	    -12.08649148	     27.54932525	     90.00000001	      0.00000000	      0.00000000
      0.47000000	      9.78998342	     -1.46462327	      9.88106182	     -1.03096418	      0.87326726	      0.19573551	     -8.08103017	      8.88067315	      0.87505973	     13.99921633	      1.62530907	      0.24433242	     21.04016730	    -12.73381238	     -9.36276457	     16.13425553	      2.23770836	      2.56458030	     51.06616468	     -7.62664695	      0.89127271	     16.34430821	    -17.12092585	     -9.36276457	    -39.91747524	      5.82570750	     -1.55399221	     19.19866977	     -9.77189617	     -5.22742975	     36.16062246	     90.00000001	      0.00000000	      0.00000000	     15.31584201	     -7.23973166	    -12.61111762	     26.96860167	     90.00000001	      0.00000000	      0.00000000
      0.48000000	      9.59332778	     -1.55949540	      9.89813679	     -1.02258762	      0.87206677	      0.19591444	     -8.46943076	      9.25062948	      0.84036931	     14.03155280	      1.27394447	      0.24489680	     21.55475570	    -12.54836064	     -9.32632358	     17.18867031	      2.29794198	      2.45251012	     48.94531993	     -7.34196766	      0.85425699	     16.34986916	    -16.73917174	     -9.32632358	    -39.68272885	      5.86687301	     -1.48867937	     19.80610281	     -9.99003406	     -5.01158318	     36.63100144	     90.00000001	      0.00000000	      0.00000000	     14.75681084	     -7.12698042	    -12.89312683	     26.61663338	     90.00000001	      0.00000000	      0.00000000
      0.49000000	      9.60964575	     -1.45917759	      9.80685508	     -1.01391867	      0.87138898	      0.19597597	     -9.25441724	      9.30240940	      1.01630457	     13.90205202	      1.16296283	      0.24263658	     22.19796309	    -12.40277575	     -9.28085511	     17.64654298	      2.47486388	      2.38505676	     46.28492259	     -6.82886611	      0.80782429	     16.22599536	    -16.47583622	     -9.28085511	    -39.66973423	      5.71567816	     -1.43258142	     20.34604071	    -10.22011138	     -4.54361330	     37.12599597	     90.00000001	      0.00000000	      0.00000000	     14.37227517	     -6.98945498	    -13.53190953	     25.98516360	     90.00000001	      0.00000000	      0.00000000
      0.50000000	      9.72200478	     -1.36063156	      9.79201775	     -1.00517997	      0.87087010	      0.19559436	    -10.37936133	      9.25123862	      1.30948778	     13.28361312	      1.30278829	      0.23184279	     22.43326025	    -12.18312703	     -9.20154656	     17.89363916	      2.70948675	      2.15889745	     43.43629887	     -6.52781412	      0.75810643	     15.90511785	    -16.20009854	     -9.20154656	    -39.76351715	      5.64783955	     -1.48525457	     20.91059364	    -10.53805836	     -3.85479222	     37.72911120	     90.00000001	      0.00000000	      0.00000000	     14.03372582	     -6.75710546	    -14.83141544	     25.35831751	     90.00000001	      0.00000000	      0.00000000
